<svg width="16" height="10" viewBox="0 0 16 10" fill="none" xmlns="http://www.w3.org/2000/svg">
<path d="M8 0.5C5.86667 0.5 4.53333 1.5 4 3.5C4.8 2.5 5.73333 2.125 6.8 2.375C7.40867 2.5175 7.84333 2.93125 8.32533 3.39C9.11 4.13625 10.0173 5 12 5C14.1333 5 15.4667 4 16 2C15.2 3 14.2667 3.375 13.2 3.125C12.5913 2.9825 12.1567 2.56875 11.6747 2.11C10.8907 1.36375 9.98333 0.5 8 0.5ZM4 5C1.86667 5 0.533333 6 0 8C0.8 7 1.73333 6.625 2.8 6.875C3.40867 7.0175 3.84333 7.43125 4.32533 7.89C5.11 8.63625 6.01733 9.5 8 9.5C10.1333 9.5 11.4667 8.5 12 6.5C11.2 7.5 10.2667 7.875 9.2 7.625C8.59133 7.4825 8.15667 7.06875 7.67467 6.61C6.89067 5.86375 5.98333 5 4 5Z" fill="#06B6D4"/>
</svg>
